<?xml version="1.0" encoding="UTF-8" standalone="no"?>
<!DOCTYPE svg PUBLIC "-//W3C//DTD SVG 1.1//EN" "http://www.w3.org/Graphics/SVG/1.1/DTD/svg11.dtd">
<svg xmlns="http://www.w3.org/2000/svg" version="1.1" viewBox="0.00 0.00 500.00 500.00">
<g stroke-width="2.00" fill="none" stroke-linecap="butt">
<path stroke="#e90b0a" vector-effect="non-scaling-stroke" d="
  M 390.38 166.26
  L 388.98 167.17
  A 0.67 0.65 -29.5 0 0 388.74 168.00
  Q 395.87 183.08 398.12 191.08
  Q 401.64 203.65 402.00 207.00
  Q 402.70 213.47 403.96 219.84
  C 404.63 223.19 403.89 226.30 404.49 229.79
  C 405.62 236.37 404.40 242.63 404.38 249.16"
/>
<path stroke="#ab174d" stroke-opacity="0.996" vector-effect="non-scaling-stroke" d="
  M 404.38 249.16
  Q 403.91 251.46 404.95 252.23"
/>
<path stroke="#e90b0a" vector-effect="non-scaling-stroke" d="
  M 404.95 252.23
  Q 406.48 240.75 405.76 229.73
  C 405.58 226.92 404.42 223.28 404.69 219.62
  C 404.86 217.28 403.96 215.49 403.92 213.12
  C 403.88 210.01 403.10 207.68 402.85 204.80
  Q 402.80 204.29 402.48 203.88
  Q 401.91 203.17 402.26 202.30
  Q 402.45 201.80 402.32 201.29
  L 402.05 200.27
  Q 401.94 199.84 402.38 199.79
  Q 402.82 199.75 403.14 199.48"
/>
<path stroke="#fd3231" vector-effect="non-scaling-stroke" d="
  M 124.57 334.94
  L 126.94 338.01"
/>
<path stroke="#fd3231" vector-effect="non-scaling-stroke" d="
  M 128.54 339.98
  Q 134.28 347.42 141.44 354.33
  C 141.86 354.74 142.24 354.75 142.74 354.52
  Q 143.04 354.38 142.79 354.17
  Q 141.69 353.22 142.02 351.50"
/>
<path stroke="#ab174d" stroke-opacity="0.996" vector-effect="non-scaling-stroke" d="
  M 357.30 351.84
  Q 357.83 350.96 358.82 350.35"
/>
<path stroke="#e90b0a" vector-effect="non-scaling-stroke" d="
  M 358.82 350.35
  L 365.65 343.49
  Q 365.77 343.37 365.64 343.26
  Q 365.52 343.15 365.38 343.00
  A 0.38 0.38 0.0 0 0 364.81 343.01
  Q 361.41 346.89 357.22 349.96
  A 0.23 0.22 3.1 0 1 356.92 349.63
  C 362.00 344.20 366.25 340.24 371.78 333.03"
/>
<path stroke="#ab174d" stroke-opacity="0.996" vector-effect="non-scaling-stroke" d="
  M 371.78 333.03
  L 378.99 323.27"
/>
<path stroke="#ab174d" stroke-opacity="0.996" vector-effect="non-scaling-stroke" d="
  M 378.39 322.95
  L 371.02 333.07"
/>
<path stroke="#e90b0a" vector-effect="non-scaling-stroke" d="
  M 371.02 333.07
  Q 363.24 342.47 354.39 350.94
  C 352.59 352.66 351.17 354.81 349.49 356.74"
/>
<path stroke="#e90b0a" vector-effect="non-scaling-stroke" d="
  M 170.24 370.21
  L 171.04 369.78"
/>
<path stroke="#ab174d" stroke-opacity="0.996" vector-effect="non-scaling-stroke" d="
  M 177.74 373.09
  Q 179.04 374.00 179.75 373.29"
/>
<path stroke="#e90b0a" vector-effect="non-scaling-stroke" d="
  M 203.75 91.96
  C 208.85 91.73 213.25 89.34 218.03 89.07
  A 0.60 0.60 0.0 0 0 218.25 87.92
  Q 216.85 87.26 215.76 88.13
  Q 215.40 88.42 214.95 88.50
  Q 210.75 89.29 206.61 90.61
  A 2.04 2.01 -77.2 0 0 205.78 91.14
  Q 205.15 91.84 204.28 91.75"
/>
<path stroke="#972257" stroke-opacity="0.996" vector-effect="non-scaling-stroke" d="
  M 371.78 333.03
  Q 370.97 333.21 371.02 333.07"
/>
<path stroke="#972257" stroke-opacity="0.996" vector-effect="non-scaling-stroke" d="
  M 358.82 350.35
  Q 357.00 350.29 356.70 351.42"
/>
<path stroke="#972257" stroke-opacity="0.996" vector-effect="non-scaling-stroke" d="
  M 404.95 252.23
  Q 405.35 248.60 404.38 249.16"
/>
<path stroke="#e93c3b" vector-effect="non-scaling-stroke" d="
  M 127.38 334.60
  Q 127.93 334.72 128.21 335.25"
/>
<path stroke="#ab497e" stroke-opacity="0.996" vector-effect="non-scaling-stroke" d="
  M 358.32 219.47
  Q 358.26 219.97 358.05 220.00"
/>
<path stroke="#e93c3b" vector-effect="non-scaling-stroke" d="
  M 98.57 278.29
  Q 98.94 278.19 98.12 278.30"
/>
<path stroke="#ab174d" stroke-opacity="0.996" vector-effect="non-scaling-stroke" d="
  M 176.20 106.58
  L 175.72 107.19
  A 0.42 0.42 0.0 0 0 176.31 107.77
  Q 176.93 107.28 177.06 106.91"
/>
<path stroke="#fd3231" vector-effect="non-scaling-stroke" d="
  M 177.06 106.91
  Q 178.46 106.65 180.05 105.83
  Q 200.31 95.35 222.76 90.88
  A 0.38 0.38 0.0 0 0 222.69 90.12
  Q 219.39 90.09 216.00 90.95
  Q 195.06 96.23 176.20 106.58"
/>
<path stroke="#ab497e" stroke-opacity="0.996" vector-effect="non-scaling-stroke" d="
  M 177.06 106.91
  L 176.20 106.58"
/>
<path stroke="#ab174d" stroke-opacity="0.996" vector-effect="non-scaling-stroke" d="
  M 403.26 256.71
  L 402.03 266.35
  Q 402.00 266.62 402.26 266.54
  C 402.85 266.34 403.60 259.35 403.73 257.76"
/>
<path stroke="#e90b0a" vector-effect="non-scaling-stroke" d="
  M 403.73 257.76
  Q 404.85 256.20 404.44 254.49
  Q 404.31 253.96 403.94 254.37
  Q 403.05 255.38 403.26 256.71"
/>
<path stroke="#972257" stroke-opacity="0.996" vector-effect="non-scaling-stroke" d="
  M 403.73 257.76
  L 403.26 256.71"
/>
<path stroke="#ab174d" stroke-opacity="0.996" vector-effect="non-scaling-stroke" d="
  M 196.62 387.05
  Q 195.44 386.19 193.98 386.00
  A 0.47 0.47 0.0 0 0 193.78 386.92
  L 197.60 388.06
  A 0.43 0.43 0.0 0 0 198.15 387.56
  C 198.09 387.26 197.61 386.94 197.22 387.11
  Q 196.90 387.25 196.62 387.05"
/>
<path stroke="#ab174d" stroke-opacity="0.996" vector-effect="non-scaling-stroke" d="
  M 249.4594 396.4225
  A 3.87 0.37 -1.0 0 0 245.5835 396.1201
  A 3.87 0.37 -1.0 0 0 241.7206 396.5575
  A 3.87 0.37 -1.0 0 0 245.5965 396.8599
  A 3.87 0.37 -1.0 0 0 249.4594 396.4225"
/>
</g>
<path fill="#fd0000" d="
  M 390.38 166.26
  L 388.98 167.17
  A 0.67 0.65 -29.5 0 0 388.74 168.00
  Q 395.87 183.08 398.12 191.08
  Q 401.64 203.65 402.00 207.00
  Q 402.70 213.47 403.96 219.84
  C 404.63 223.19 403.89 226.30 404.49 229.79
  C 405.62 236.37 404.40 242.63 404.38 249.16
  Q 403.91 251.46 404.95 252.23
  Q 406.48 240.75 405.76 229.73
  C 405.58 226.92 404.42 223.28 404.69 219.62
  C 404.86 217.28 403.96 215.49 403.92 213.12
  C 403.88 210.01 403.10 207.68 402.85 204.80
  Q 402.80 204.29 402.48 203.88
  Q 401.91 203.17 402.26 202.30
  Q 402.45 201.80 402.32 201.29
  L 402.05 200.27
  Q 401.94 199.84 402.38 199.79
  Q 402.82 199.75 403.14 199.48
  C 413.58 239.85 407.83 282.34 387.83 318.36
  C 373.79 343.63 350.00 364.71 324.81 378.80
  C 256.12 417.21 172.22 398.24 124.32 337.44
  Q 121.00 333.23 118.53 328.67
  A 0.30 0.30 0.0 0 1 119.02 328.34
  L 124.57 334.94
  L 126.94 338.01
  L 128.54 339.98
  Q 134.28 347.42 141.44 354.33
  C 141.86 354.74 142.24 354.75 142.74 354.52
  Q 143.04 354.38 142.79 354.17
  Q 141.69 353.22 142.02 351.50
  Q 181.45 388.32 234.41 393.88
  Q 236.28 394.07 242.42 394.12
  C 245.39 394.14 249.72 394.81 253.48 394.37
  Q 253.83 394.33 253.65 394.03
  L 253.50 393.78
  A 0.03 0.03 0.0 0 1 253.53 393.73
  C 291.43 394.43 329.44 376.62 357.30 351.84
  Q 357.83 350.96 358.82 350.35
  L 365.65 343.49
  Q 365.77 343.37 365.64 343.26
  Q 365.52 343.15 365.38 343.00
  A 0.38 0.38 0.0 0 0 364.81 343.01
  Q 361.41 346.89 357.22 349.96
  A 0.23 0.22 3.1 0 1 356.92 349.63
  C 362.00 344.20 366.25 340.24 371.78 333.03
  L 378.99 323.27
  Q 385.21 314.05 391.34 301.33
  Q 392.46 299.00 392.74 297.42
  Q 392.95 296.25 392.43 297.32
  C 388.06 306.26 383.61 314.45 378.39 322.95
  L 371.02 333.07
  Q 363.24 342.47 354.39 350.94
  C 352.59 352.66 351.17 354.81 349.49 356.74
  Q 338.78 364.08 335.48 366.22
  C 314.27 379.99 289.07 387.99 263.61 391.04
  C 231.60 394.87 197.52 386.96 170.24 370.21
  L 171.04 369.78
  L 177.74 373.09
  Q 179.04 374.00 179.75 373.29
  C 180.08 373.25 180.69 373.22 181.01 373.39
  Q 202.57 384.02 226.32 387.39
  C 228.13 387.65 237.44 388.56 238.49 387.43
  Q 238.93 386.96 238.29 386.90
  Q 228.74 386.11 219.65 383.02
  Q 218.99 382.79 219.48 382.30
  Q 219.72 382.05 220.81 381.43
  A 0.14 0.14 0.0 0 1 220.98 381.65
  L 220.65 381.97
  A 0.58 0.58 0.0 0 0 221.00 382.95
  Q 228.14 383.72 234.75 384.34
  Q 283.86 388.88 326.55 363.04
  C 362.45 341.31 384.60 310.20 395.17 269.97
  C 395.57 268.43 395.54 266.80 395.79 265.39
  Q 405.67 209.15 377.72 161.30
  C 346.08 107.16 278.69 79.48 217.94 93.18
  C 197.15 97.87 179.90 106.64 162.56 117.36
  A 0.19 0.19 0.0 0 1 162.34 117.05
  Q 167.96 112.42 174.35 108.86
  A 0.78 0.76 -11.6 0 0 174.73 108.30
  Q 174.75 108.18 174.75 108.04
  Q 174.76 107.67 174.43 107.84
  L 162.95 113.96
  A 0.45 0.45 0.0 0 1 162.33 113.39
  Q 162.51 112.97 162.94 112.67
  Q 180.32 100.28 198.96 93.99
  Q 202.40 92.83 203.75 91.96
  C 208.85 91.73 213.25 89.34 218.03 89.07
  A 0.60 0.60 0.0 0 0 218.25 87.92
  Q 216.85 87.26 215.76 88.13
  Q 215.40 88.42 214.95 88.50
  Q 210.75 89.29 206.61 90.61
  A 2.04 2.01 -77.2 0 0 205.78 91.14
  Q 205.15 91.84 204.28 91.75
  L 204.40 91.49
  A 0.33 0.33 0.0 0 0 204.12 91.01
  Q 203.92 91.00 203.72 91.01
  Q 203.36 91.02 203.67 90.84
  Q 206.20 89.41 210.76 88.27
  C 282.48 70.32 355.36 100.47 390.38 166.26
  Z
  M 176.20 106.58
  L 175.72 107.19
  A 0.42 0.42 0.0 0 0 176.31 107.77
  Q 176.93 107.28 177.06 106.91
  Q 178.46 106.65 180.05 105.83
  Q 200.31 95.35 222.76 90.88
  A 0.38 0.38 0.0 0 0 222.69 90.12
  Q 219.39 90.09 216.00 90.95
  Q 195.06 96.23 176.20 106.58
  Z
  M 403.26 256.71
  L 402.03 266.35
  Q 402.00 266.62 402.26 266.54
  C 402.85 266.34 403.60 259.35 403.73 257.76
  Q 404.85 256.20 404.44 254.49
  Q 404.31 253.96 403.94 254.37
  Q 403.05 255.38 403.26 256.71
  Z
  M 188.78 384.94
  Q 190.63 385.45 192.44 386.30
  A 0.33 0.33 0.0 0 0 192.81 385.76
  Q 190.92 383.91 188.79 384.39
  A 0.28 0.28 0.0 0 0 188.78 384.94
  Z
  M 196.62 387.05
  Q 195.44 386.19 193.98 386.00
  A 0.47 0.47 0.0 0 0 193.78 386.92
  L 197.60 388.06
  A 0.43 0.43 0.0 0 0 198.15 387.56
  C 198.09 387.26 197.61 386.94 197.22 387.11
  Q 196.90 387.25 196.62 387.05
  Z
  M 221.1613 393.8145
  A 0.26 0.26 0.0 0 0 220.9725 393.4990
  L 199.7517 388.1687
  A 0.26 0.26 0.0 0 0 199.4362 388.3575
  L 199.3387 388.7455
  A 0.26 0.26 0.0 0 0 199.5275 389.0610
  L 220.7483 394.3913
  A 0.26 0.26 0.0 0 0 221.0638 394.2025
  L 221.1613 393.8145
  Z
  M 222.33 394.20
  Q 224.47 395.26 226.86 394.99
  Q 227.39 394.94 227.89 395.08
  Q 231.40 396.12 235.00 395.63
  A 0.33 0.32 -42.5 0 0 235.03 394.99
  C 232.67 394.48 230.14 394.87 227.89 394.43
  Q 225.16 393.89 222.39 393.90
  A 0.16 0.15 57.3 0 0 222.33 394.20
  Z
  M 249.4594 396.4225
  A 3.87 0.37 -1.0 0 0 245.5835 396.1201
  A 3.87 0.37 -1.0 0 0 241.7206 396.5575
  A 3.87 0.37 -1.0 0 0 245.5965 396.8599
  A 3.87 0.37 -1.0 0 0 249.4594 396.4225
  Z"
/>
<path fill="#d51514" d="
  M 203.75 91.96
  Q 203.88 91.64 204.28 91.75
  Q 205.15 91.84 205.78 91.14
  A 2.04 2.01 -77.2 0 1 206.61 90.61
  Q 210.75 89.29 214.95 88.50
  Q 215.40 88.42 215.76 88.13
  Q 216.85 87.26 218.25 87.92
  A 0.60 0.60 0.0 0 1 218.03 89.07
  C 213.25 89.34 208.85 91.73 203.75 91.96
  Z"
/>
<path fill="#fd6362" d="
  M 177.06 106.91
  L 176.20 106.58
  Q 195.06 96.23 216.00 90.95
  Q 219.39 90.09 222.69 90.12
  A 0.38 0.38 0.0 0 1 222.76 90.88
  Q 200.31 95.35 180.05 105.83
  Q 178.46 106.65 177.06 106.91
  Z"
/>
<path fill="#592f9b" fill-opacity="0.992" d="
  M 176.20 106.58
  L 177.06 106.91
  Q 176.93 107.28 176.31 107.77
  A 0.42 0.42 0.0 0 1 175.72 107.19
  L 176.20 106.58
  Z"
/>
<path fill="#fd6362" d="
  M 358.32 219.47
  Q 358.26 219.97 358.05 220.00
  C 349.89 209.22 340.25 204.15 327.23 196.28
  Q 309.95 185.82 303.83 167.98
  Q 302.44 163.93 304.55 167.65
  C 310.94 178.91 324.09 186.36 335.00 193.49
  C 344.99 200.02 353.82 208.17 358.32 219.47
  Z"
/>
<path fill="#d51514" d="
  M 390.38 166.26
  Q 398.69 182.06 403.14 199.48
  Q 402.82 199.75 402.38 199.79
  Q 401.94 199.84 402.05 200.27
  L 402.32 201.29
  Q 402.45 201.80 402.26 202.30
  Q 401.91 203.17 402.48 203.88
  Q 402.80 204.29 402.85 204.80
  C 403.10 207.68 403.88 210.01 403.92 213.12
  C 403.96 215.49 404.86 217.28 404.69 219.62
  C 404.42 223.28 405.58 226.92 405.76 229.73
  Q 406.48 240.75 404.95 252.23
  Q 405.35 248.60 404.38 249.16
  C 404.40 242.63 405.62 236.37 404.49 229.79
  C 403.89 226.30 404.63 223.19 403.96 219.84
  Q 402.70 213.47 402.00 207.00
  Q 401.64 203.65 398.12 191.08
  Q 395.87 183.08 388.74 168.00
  A 0.67 0.65 -29.5 0 1 388.98 167.17
  L 390.38 166.26
  Z"
/>
<path fill="#d51514" d="
  M 94.29 226.34
  Q 94.20 226.06 94.23 225.74
  Q 96.83 195.84 110.47 169.13
  Q 110.73 168.63 110.85 169.18
  Q 110.95 169.66 110.62 170.34
  Q 99.76 192.50 95.84 218.27
  Q 95.13 222.94 94.07 237.74
  A 0.16 0.16 0.0 0 1 93.75 237.73
  Q 93.59 232.49 94.37 227.29
  A 2.16 2.08 41.3 0 0 94.29 226.34
  Z"
/>
<path fill="#fd0000" d="
  M 290.41 190.84
  C 315.11 197.69 342.66 201.22 358.16 224.01
  Q 358.51 224.54 358.04 224.11
  C 339.86 207.57 314.92 209.28 293.20 200.32
  Q 273.82 192.33 262.64 174.75
  Q 261.91 173.60 262.86 174.58
  Q 274.28 186.36 290.41 190.84
  Z"
/>
<path fill="#d51514" d="
  M 223.99 204.08
  C 237.82 213.05 253.01 215.06 269.63 213.45
  C 299.40 210.57 329.06 206.18 355.35 224.49
  Q 356.30 225.14 355.25 224.67
  C 344.42 219.81 333.32 218.63 321.20 219.97
  Q 305.32 221.72 289.44 223.42
  C 265.46 225.99 242.18 219.89 223.87 204.23
  Q 222.76 203.28 223.99 204.08
  Z"
/>
<path fill="#592f9b" fill-opacity="0.992" d="
  M 358.32 219.47
  Q 359.18 220.62 359.47 221.94
  Q 359.66 222.77 359.14 222.10
  Q 358.44 221.19 358.05 220.00
  Q 358.26 219.97 358.32 219.47
  Z"
/>
<path fill="#fd0000" d="
  M 138.00 232.95
  L 138.00 263.08
  A 0.85 0.85 0.0 0 1 137.15 263.93
  L 133.58 263.92
  A 0.85 0.85 0.0 0 1 132.73 263.07
  L 132.78 232.86
  A 0.85 0.85 0.0 0 0 131.93 232.01
  L 124.14 232.00
  A 0.85 0.85 0.0 0 1 123.29 231.16
  L 123.24 228.11
  A 0.85 0.85 0.0 0 1 124.09 227.25
  L 146.90 227.25
  A 0.85 0.85 0.0 0 1 147.75 228.10
  L 147.75 231.20
  A 0.85 0.85 0.0 0 1 146.90 232.05
  L 138.85 232.10
  A 0.85 0.85 0.0 0 0 138.00 232.95
  Z"
/>
<path fill="#fd0000" d="
  M 163.84 243.24
  L 181.09 243.26
  A 0.83 0.83 0.0 0 0 181.92 242.45
  L 182.22 228.10
  A 0.83 0.83 0.0 0 1 183.04 227.29
  L 186.16 227.24
  A 0.83 0.83 0.0 0 1 187.00 228.07
  L 187.00 263.15
  A 0.83 0.83 0.0 0 1 186.16 263.98
  L 182.82 263.94
  A 0.83 0.83 0.0 0 1 182.00 263.11
  L 182.00 248.83
  A 0.83 0.83 0.0 0 0 181.17 248.00
  L 163.83 248.00
  A 0.83 0.83 0.0 0 0 163.00 248.83
  L 163.00 263.10
  A 0.83 0.83 0.0 0 1 162.18 263.93
  L 158.84 263.99
  A 0.83 0.83 0.0 0 1 158.00 263.16
  L 158.00 228.22
  A 0.83 0.83 0.0 0 1 158.77 227.39
  L 162.09 227.15
  A 0.83 0.83 0.0 0 1 162.98 227.97
  L 163.01 242.41
  A 0.83 0.83 0.0 0 0 163.84 243.24
  Z"
/>
<rect fill="#fd0000" x="287.25" y="227.32" width="5.00" height="36.68" rx="1.10"/>
<path fill="#fd0000" d="
  M 329.17 242.70
  L 329.54 228.02
  Q 329.56 227.35 330.23 227.36
  L 333.58 227.39
  Q 334.25 227.40 334.25 228.08
  L 334.25 263.39
  Q 334.25 263.97 333.67 263.97
  L 330.04 263.97
  A 0.62 0.62 0.0 0 1 329.42 263.35
  L 329.54 248.93
  A 0.93 0.92 90.0 0 0 328.62 248.00
  L 310.88 248.00
  A 0.63 0.63 0.0 0 0 310.25 248.63
  L 310.25 263.27
  A 0.71 0.70 -0.0 0 1 309.54 263.97
  L 305.96 263.97
  Q 305.25 263.97 305.25 263.27
  L 305.25 228.46
  Q 305.25 227.81 305.85 227.57
  Q 307.90 226.75 309.78 227.64
  Q 310.26 227.87 310.26 228.39
  Q 310.24 235.54 310.25 242.69
  Q 310.25 243.26 310.82 243.26
  L 328.62 243.24
  Q 329.16 243.24 329.17 242.70
  Z"
/>
<path fill="#fd0000" d="
  M 374.50 251.75
  C 374.51 267.77 347.63 269.83 347.14 250.22
  Q 346.86 239.09 347.05 227.85
  Q 347.06 227.38 347.53 227.37
  L 351.24 227.27
  Q 351.98 227.26 351.98 227.99
  Q 352.04 237.82 351.99 247.58
  C 351.96 252.79 352.25 256.32 356.79 258.61
  C 363.35 261.94 369.68 257.03 369.72 249.93
  Q 369.77 238.98 369.74 228.00
  Q 369.74 227.30 370.44 227.32
  L 373.86 227.43
  Q 374.50 227.45 374.50 228.10
  Q 374.50 239.93 374.50 251.75
  Z"
/>
<path fill="#fd0000" d="
  M 206.11 243.18
  L 221.15 243.28
  A 0.85 0.85 0.0 0 1 221.99 244.13
  L 221.99 247.15
  A 0.85 0.85 0.0 0 1 221.14 248.00
  L 206.10 248.00
  A 0.85 0.85 0.0 0 0 205.25 248.85
  L 205.25 258.38
  A 0.85 0.85 0.0 0 0 206.10 259.23
  L 223.92 259.26
  A 0.85 0.85 0.0 0 1 224.76 260.12
  L 224.71 263.17
  A 0.85 0.85 0.0 0 1 223.86 264.00
  L 201.10 264.00
  A 0.85 0.85 0.0 0 1 200.25 263.15
  L 200.25 228.35
  A 0.85 0.85 0.0 0 1 201.10 227.50
  L 223.20 227.50
  A 0.85 0.85 0.0 0 1 224.05 228.33
  L 224.13 231.10
  A 0.85 0.85 0.0 0 1 223.28 231.97
  L 206.09 232.07
  A 0.85 0.85 0.0 0 0 205.24 232.92
  L 205.27 242.33
  A 0.85 0.85 0.0 0 0 206.11 243.18
  Z"
/>
<path fill="#fd0000" d="
  M 259.54 251.27
  L 259.48 263.22
  Q 259.48 263.92 258.78 263.92
  L 255.18 263.92
  A 0.74 0.73 -90.0 0 1 254.45 263.18
  L 254.42 228.06
  Q 254.42 227.56 254.92 227.55
  C 264.20 227.35 275.65 225.99 277.00 237.23
  Q 278.02 245.80 270.92 249.29
  C 267.78 250.84 263.93 250.50 260.28 250.52
  Q 259.54 250.53 259.54 251.27
  Z
  M 259.52 233.03
  L 259.50 244.73
  A 1.00 1.00 0.0 0 0 260.50 245.73
  L 264.90 245.74
  A 7.10 6.58 0.1 0 0 272.01 239.17
  L 272.01 238.63
  A 7.10 6.58 0.1 0 0 264.92 232.04
  L 260.52 232.03
  A 1.00 1.00 0.0 0 0 259.52 233.03
  Z"
/>
<path fill="#592f9b" fill-opacity="0.992" d="
  M 404.95 252.23
  Q 403.91 251.46 404.38 249.16
  Q 405.35 248.60 404.95 252.23
  Z"
/>
<path fill="#d51514" d="
  M 102.96 280.20
  A 0.16 0.16 0.0 0 1 102.78 280.07
  L 102.74 279.79
  A 28.26 0.39 80.9 0 1 98.65 251.83
  L 98.73 251.81
  A 28.26 0.39 80.9 0 1 103.58 279.66
  L 103.63 279.93
  A 0.16 0.16 0.0 0 1 103.50 280.12
  L 102.96 280.20
  Z"
/>
<path fill="#d51514" d="
  M 403.73 257.76
  L 403.26 256.71
  Q 403.05 255.38 403.94 254.37
  Q 404.31 253.96 404.44 254.49
  Q 404.85 256.20 403.73 257.76
  Z"
/>
<path fill="#592f9b" fill-opacity="0.992" d="
  M 403.26 256.71
  L 403.73 257.76
  C 403.60 259.35 402.85 266.34 402.26 266.54
  Q 402.00 266.62 402.03 266.35
  L 403.26 256.71
  Z"
/>
<path fill="#d51514" d="
  M 98.57 278.29
  Q 98.94 278.19 98.12 278.30
  Q 97.17 274.75 96.78 271.05
  Q 96.63 269.57 97.00 271.01
  Q 97.95 274.60 98.57 278.29
  Z"
/>
<path fill="#fd6362" d="
  M 98.12 278.30
  Q 98.94 278.19 98.57 278.29
  L 104.12 296.44
  Q 104.59 298.00 103.88 296.53
  Q 99.70 287.89 98.12 278.30
  Z"
/>
<path fill="#d51514" d="
  M 105.19 283.64
  A 0.17 0.17 0.0 0 1 104.90 283.80
  Q 104.04 282.76 104.15 281.24
  Q 104.20 280.54 104.42 281.21
  L 105.19 283.64
  Z"
/>
<path fill="#592f9b" fill-opacity="0.992" d="
  M 120.87 285.54
  A 1.83 1.83 0.0 0 1 120.38 282.83
  Q 122.55 280.08 125.60 282.12
  A 0.38 0.38 0.0 0 1 125.66 282.71
  L 125.44 282.94
  A 0.38 0.37 -53.7 0 1 125.02 283.01
  Q 123.26 282.19 121.76 283.30
  A 0.83 0.83 0.0 0 0 122.00 284.76
  C 129.30 287.12 125.03 293.31 120.07 290.23
  A 0.33 0.32 31.4 0 1 119.96 289.79
  L 120.13 289.51
  Q 120.35 289.14 120.73 289.35
  Q 121.83 289.94 122.97 289.99
  A 1.45 1.45 0.0 0 0 123.79 287.30
  L 120.87 285.54
  Z"
/>
<path fill="#592f9b" fill-opacity="0.992" d="
  M 131.89 282.88
  A 1.50 1.49 19.8 0 0 130.91 283.34
  Q 130.14 284.12 130.88 284.88
  Q 131.14 285.14 131.50 285.18
  L 134.26 285.47
  A 0.76 0.76 0.0 0 1 134.19 286.98
  L 131.12 287.01
  Q 130.50 287.01 130.50 287.63
  L 130.50 289.19
  Q 130.50 289.76 131.07 289.75
  C 131.79 289.75 135.74 289.37 135.65 290.47
  Q 135.60 291.00 135.07 291.00
  L 129.81 291.00
  A 0.63 0.63 0.0 0 1 129.18 290.37
  L 129.11 281.89
  A 0.67 0.67 0.0 0 1 129.80 281.21
  L 135.02 281.35
  A 0.66 0.66 0.0 0 1 135.05 282.66
  L 131.89 282.88
  Z"
/>
<path fill="#592f9b" fill-opacity="0.992" d="
  M 152.74 287.26
  C 151.12 286.48 148.21 285.42 149.07 283.06
  C 149.85 280.96 152.62 280.97 154.26 281.98
  A 0.44 0.44 0.0 0 1 153.95 282.79
  Q 152.10 282.48 150.33 283.10
  A 0.64 0.63 51.1 0 0 150.21 284.24
  L 153.37 286.20
  A 2.71 2.63 -0.8 0 1 154.11 286.90
  C 156.53 290.28 151.31 292.35 148.65 289.91
  A 0.37 0.37 0.0 0 1 148.92 289.27
  Q 149.99 289.34 150.96 289.89
  A 1.31 1.28 -36.5 0 0 151.90 290.02
  Q 153.43 289.62 153.24 287.96
  Q 153.19 287.47 152.74 287.26
  Z"
/>
<rect fill="#592f9b" fill-opacity="0.992" x="-0.60" y="-4.67" transform="translate(158.55,286.04) rotate(0.2)" width="1.20" height="9.34" rx="0.48"/>
<path fill="#592f9b" fill-opacity="0.992" d="
  M 162.99 282.32
  A 1.02 1.02 0.0 0 1 164.01 281.29
  L 165.36 281.29
  A 5.33 4.77 -0.1 0 1 170.70 286.05
  L 170.70 286.25
  A 5.33 4.77 -0.1 0 1 165.38 291.03
  L 164.03 291.03
  A 1.02 1.02 0.0 0 1 163.01 290.02
  L 162.99 282.32
  Z
  M 164.25 283.58
  L 163.96 288.81
  A 1.09 1.09 0.0 0 0 164.99 289.96
  L 165.14 289.97
  A 3.96 3.40 3.2 0 0 169.28 286.79
  L 169.31 286.18
  A 3.96 3.40 3.2 0 0 165.55 282.56
  L 165.40 282.55
  A 1.09 1.09 0.0 0 0 164.25 283.58
  Z"
/>
<path fill="#592f9b" fill-opacity="0.992" d="
  M 176.03 286.84
  A 1.48 1.48 0.0 0 0 176.44 289.74
  L 179.94 289.76
  A 0.63 0.53 -40.5 0 1 179.75 290.91
  L 174.60 291.00
  Q 174.00 291.01 174.00 290.41
  L 174.00 281.85
  Q 174.00 281.19 174.66 281.21
  L 179.67 281.35
  A 0.55 0.55 0.0 0 1 179.71 282.45
  L 175.70 282.81
  A 0.49 0.49 0.0 0 0 175.25 283.30
  L 175.25 284.88
  A 0.63 0.62 0.0 0 0 175.88 285.50
  L 179.12 285.50
  Q 179.92 285.50 179.63 286.24
  C 179.31 287.09 176.70 286.65 176.03 286.84
  Z"
/>
<path fill="#592f9b" fill-opacity="0.992" d="
  M 188.99 282.18
  A 0.84 0.84 0.0 0 1 189.82 281.34
  L 191.25 281.33
  A 3.25 3.07 -0.2 0 1 194.51 284.39
  L 194.53 287.99
  A 3.25 3.07 -0.2 0 1 191.29 291.07
  L 189.86 291.08
  A 0.84 0.84 0.0 0 1 189.01 290.24
  L 188.99 282.18
  Z
  M 193.02 284.12
  A 1.54 1.54 0.0 0 0 191.48 282.58
  A 1.54 1.54 0.0 0 0 189.94 284.12
  A 1.54 1.54 0.0 0 0 191.48 285.66
  A 1.54 1.54 0.0 0 0 193.02 284.12
  Z
  M 190.03 287.50
  L 190.03 289.28
  A 0.68 0.68 0.0 0 0 190.70 289.96
  L 190.85 289.97
  A 2.65 1.33 0.3 0 0 193.51 288.65
  L 193.51 288.17
  A 2.65 1.33 0.3 0 0 190.87 286.83
  L 190.72 286.82
  A 0.68 0.68 0.0 0 0 190.03 287.50
  Z"
/>
<path fill="#592f9b" fill-opacity="0.992" d="
  M 199.51 288.66
  A 1.03 1.03 0.0 0 0 200.48 289.69
  L 203.95 289.88
  A 0.54 0.53 -43.5 0 1 203.92 290.95
  L 198.66 290.99
  A 0.51 0.50 89.4 0 1 198.15 290.48
  L 198.28 281.72
  Q 198.29 281.24 198.77 281.25
  Q 198.90 281.25 199.03 281.25
  A 0.42 0.42 0.0 0 1 199.47 281.67
  L 199.51 288.66
  Z"
/>
<rect fill="#592f9b" fill-opacity="0.992" x="-0.73" y="-4.82" transform="translate(208.00,286.12) rotate(0.1)" width="1.46" height="9.64" rx="0.71"/>
<path fill="#592f9b" fill-opacity="0.992" d="
  M 243.96 286.25
  C 246.55 289.79 242.66 291.88 239.54 290.78
  Q 239.00 290.59 239.00 290.02
  L 239.00 282.17
  Q 239.00 281.47 239.70 281.37
  C 241.80 281.10 246.06 282.17 243.94 285.31
  Q 243.62 285.79 243.96 286.25
  Z
  M 243.03 284.12
  A 1.52 1.52 0.0 0 0 241.51 282.60
  A 1.52 1.52 0.0 0 0 239.99 284.12
  A 1.52 1.52 0.0 0 0 241.51 285.64
  A 1.52 1.52 0.0 0 0 243.03 284.12
  Z
  M 243.4680 287.8355
  A 1.16 1.16 0.0 0 0 242.1476 286.8620
  L 240.9018 287.0504
  A 1.16 1.16 0.0 0 0 239.9283 288.3708
  L 240.0120 288.9245
  A 1.16 1.16 0.0 0 0 241.3324 289.8980
  L 242.5782 289.7096
  A 1.16 1.16 0.0 0 0 243.5517 288.3892
  L 243.4680 287.8355
  Z"
/>
<path fill="#592f9b" fill-opacity="0.992" d="
  M 249.79 286.92
  A 1.45 1.45 0.0 0 0 250.27 289.74
  L 253.94 289.76
  A 0.53 0.52 43.9 0 1 253.96 290.81
  L 248.62 291.02
  Q 248.00 291.05 248.00 290.43
  L 248.00 281.86
  A 0.59 0.58 90.0 0 1 248.58 281.27
  L 253.45 281.27
  A 0.70 0.69 43.8 0 1 253.48 282.66
  L 249.85 282.81
  Q 249.21 282.83 249.19 283.47
  L 249.14 284.68
  Q 249.10 285.50 249.93 285.50
  L 253.08 285.50
  Q 253.80 285.50 253.63 286.20
  C 253.41 287.06 250.46 286.68 249.79 286.92
  Z"
/>
<path fill="#592f9b" fill-opacity="0.992" d="
  M 260.41 285.49
  A 0.57 0.57 0.0 0 0 261.41 285.49
  L 263.62 281.29
  A 0.49 0.49 0.0 0 1 264.48 281.27
  L 264.72 281.67
  A 0.61 0.60 50.5 0 1 264.66 282.36
  Q 261.66 285.92 261.35 290.49
  Q 261.32 291.07 260.73 291.00
  Q 260.39 290.95 260.29 290.41
  Q 260.25 290.20 260.26 290.00
  Q 260.28 289.12 260.17 288.29
  C 259.92 286.41 257.95 283.74 257.12 281.97
  A 0.61 0.61 0.0 0 1 258.21 281.42
  L 260.41 285.49
  Z"
/>
<path fill="#592f9b" fill-opacity="0.992" d="
  M 276.99 286.15
  A 4.80 4.80 0.0 0 1 272.19 290.95
  A 4.80 4.80 0.0 0 1 267.39 286.15
  A 4.80 4.80 0.0 0 1 272.19 281.35
  A 4.80 4.80 0.0 0 1 276.99 286.15
  Z
  M 275.85 286.18
  A 3.62 3.62 0.0 0 0 272.23 282.56
  A 3.62 3.62 0.0 0 0 268.61 286.18
  A 3.62 3.62 0.0 0 0 272.23 289.80
  A 3.62 3.62 0.0 0 0 275.85 286.18
  Z"
/>
<path fill="#592f9b" fill-opacity="0.992" d="
  M 281.78 285.30
  C 281.76 285.76 282.32 292.09 280.54 290.78
  A 0.41 0.39 -74.9 0 1 280.37 290.47
  L 280.28 281.78
  A 0.34 0.34 0.0 0 1 280.87 281.54
  L 286.55 287.43
  A 0.55 0.55 0.0 0 0 287.50 287.04
  C 287.50 286.36 287.08 281.07 288.23 281.29
  Q 288.74 281.39 288.74 281.91
  L 288.75 290.29
  Q 288.75 291.12 288.16 290.53
  L 282.60 284.98
  A 0.48 0.48 0.0 0 0 281.78 285.30
  Z"
/>
<path fill="#592f9b" fill-opacity="0.992" d="
  M 315.52 289.77
  C 315.12 292.46 308.61 290.76 308.17 286.89
  C 307.45 280.69 315.75 280.47 315.32 282.42
  Q 315.22 282.88 314.76 282.80
  C 306.98 281.51 308.12 292.02 314.96 289.33
  A 0.42 0.41 -6.4 0 1 315.52 289.77
  Z"
/>
<path fill="#592f9b" fill-opacity="0.992" d="
  M 327.99 286.18
  A 4.79 4.79 0.0 0 1 323.20 290.97
  A 4.79 4.79 0.0 0 1 318.41 286.18
  A 4.79 4.79 0.0 0 1 323.20 281.39
  A 4.79 4.79 0.0 0 1 327.99 286.18
  Z
  M 326.86 286.20
  A 3.63 3.63 0.0 0 0 323.23 282.57
  A 3.63 3.63 0.0 0 0 319.60 286.20
  A 3.63 3.63 0.0 0 0 323.23 289.83
  A 3.63 3.63 0.0 0 0 326.86 286.20
  Z"
/>
<path fill="#592f9b" fill-opacity="0.992" d="
  M 368.72 288.08
  L 370.22 290.23
  A 0.47 0.47 0.0 0 1 369.56 290.88
  C 368.10 289.81 367.91 287.80 365.99 287.29
  Q 365.39 287.13 365.30 287.75
  C 365.19 288.45 365.57 290.74 364.54 290.78
  Q 364.00 290.80 364.00 290.27
  L 364.00 281.97
  Q 364.00 281.43 364.54 281.34
  C 368.09 280.73 371.67 283.31 368.76 286.97
  A 0.92 0.92 0.0 0 0 368.72 288.08
  Z
  M 368.52 284.47
  A 1.83 1.83 0.0 0 0 366.69 282.64
  A 1.83 1.83 0.0 0 0 364.86 284.47
  A 1.83 1.83 0.0 0 0 366.69 286.30
  A 1.83 1.83 0.0 0 0 368.52 284.47
  Z"
/>
<path fill="#592f9b" fill-opacity="0.992" d="
  M 375.67 285.50
  L 378.89 285.50
  Q 379.33 285.50 379.27 285.93
  L 379.22 286.27
  Q 379.18 286.61 378.84 286.65
  L 375.55 287.06
  Q 374.98 287.13 374.99 287.70
  L 375.02 289.29
  Q 375.03 289.91 375.65 289.85
  Q 377.60 289.65 379.58 289.80
  A 0.60 0.59 47.1 0 1 379.54 290.99
  L 374.34 290.95
  Q 373.75 290.94 373.75 290.35
  L 373.75 281.85
  Q 373.75 281.21 374.40 281.22
  L 379.52 281.32
  A 0.59 0.59 0.0 0 1 379.56 282.49
  L 375.55 282.85
  Q 374.98 282.90 374.99 283.46
  L 375.02 284.86
  A 0.66 0.65 89.1 0 0 375.67 285.50
  Z"
/>
<path fill="#592f9b" fill-opacity="0.992" d="
  M 139.97 289.16
  L 139.28 290.59
  A 0.55 0.55 0.0 0 1 138.28 290.14
  L 141.64 281.94
  A 0.60 0.59 -44.8 0 1 142.74 281.94
  L 146.17 290.46
  A 0.37 0.37 0.0 0 1 145.88 290.96
  L 145.58 291.00
  A 0.75 0.74 78.6 0 1 144.76 290.45
  Q 143.97 287.45 140.47 288.72
  Q 140.13 288.84 139.97 289.16
  Z
  M 141.24 286.33
  Q 140.95 286.93 141.62 287.00
  Q 142.97 287.14 142.91 285.79
  A 0.67 0.67 0.0 0 0 141.64 285.52
  L 141.24 286.33
  Z"
/>
<path fill="#592f9b" fill-opacity="0.992" d="
  M 215.83 287.12
  C 209.09 284.46 213.53 279.41 217.46 282.01
  Q 218.31 282.57 217.30 282.74
  Q 216.59 282.86 215.94 282.68
  A 2.49 2.39 49.2 0 0 214.99 282.59
  Q 213.53 282.74 213.46 283.94
  A 0.82 0.80 -76.1 0 0 213.92 284.72
  C 221.65 288.26 215.99 293.10 212.17 290.17
  Q 211.81 289.90 212.08 289.54
  C 212.41 289.10 214.63 290.14 215.74 289.80
  A 1.42 1.42 0.0 0 0 215.83 287.12
  Z"
/>
<path fill="#592f9b" fill-opacity="0.992" d="
  M 224.70 287.22
  C 223.19 286.54 220.34 285.35 221.00 283.23
  C 221.68 281.02 224.75 281.04 226.35 282.11
  A 0.38 0.38 0.0 0 1 226.02 282.78
  Q 223.93 282.06 222.31 283.31
  A 0.78 0.78 0.0 0 0 222.48 284.65
  C 230.37 287.91 225.03 293.29 220.78 290.07
  Q 220.15 289.59 220.93 289.47
  Q 221.86 289.32 222.76 289.97
  A 1.41 1.40 40.7 0 0 224.56 289.84
  Q 225.41 289.03 225.24 287.94
  Q 225.16 287.43 224.70 287.22
  Z"
/>
<path fill="#592f9b" fill-opacity="0.992" d="
  M 292.46 281.99
  A 0.54 0.54 0.0 0 1 293.01 281.45
  L 295.04 281.46
  A 5.17 4.65 0.2 0 1 300.19 286.12
  L 300.19 286.34
  A 5.17 4.65 0.2 0 1 295.00 290.98
  L 292.97 290.97
  A 0.54 0.54 0.0 0 1 292.44 290.43
  L 292.46 281.99
  Z
  M 293.73 283.48
  L 293.73 288.84
  A 0.94 0.94 0.0 0 0 294.67 289.78
  L 295.34 289.78
  A 3.67 3.44 0.0 0 0 299.01 286.34
  L 299.01 285.98
  A 3.67 3.44 0.0 0 0 295.34 282.54
  L 294.67 282.54
  A 0.94 0.94 0.0 0 0 293.73 283.48
  Z"
/>
<path fill="#592f9b" fill-opacity="0.992" d="
  M 346.76 287.40
  Q 345.58 287.38 345.75 288.55
  L 346.00 290.24
  A 0.45 0.44 -3.8 0 1 345.55 290.75
  Q 345.39 290.75 345.24 290.75
  Q 344.75 290.74 344.75 290.25
  L 344.75 282.28
  Q 344.75 281.86 345.14 281.74
  C 351.16 279.75 352.74 287.47 346.76 287.40
  Z
  M 346.00 283.11
  L 345.98 285.65
  A 0.60 0.60 0.0 0 0 346.58 286.25
  L 346.84 286.26
  A 2.40 1.64 0.3 0 0 349.25 284.63
  L 349.25 284.17
  A 2.40 1.64 0.3 0 0 346.86 282.52
  L 346.60 282.51
  A 0.60 0.60 0.0 0 0 346.00 283.11
  Z"
/>
<path fill="#592f9b" fill-opacity="0.992" d="
  M 358.27 288.64
  Q 354.84 287.66 353.81 290.72
  A 0.43 0.42 35.5 0 1 353.07 290.84
  C 352.72 290.38 356.11 282.87 356.52 281.91
  A 0.46 0.45 -44.7 0 1 357.36 281.91
  L 360.79 290.17
  A 0.60 0.60 0.0 0 1 359.70 290.67
  L 358.98 289.23
  Q 358.75 288.78 358.27 288.64
  Z
  M 357.59 285.70
  A 0.94 0.94 0.0 0 0 355.85 286.15
  Q 355.80 287.60 357.53 287.19
  Q 358.14 287.05 357.94 286.46
  Q 357.82 286.09 357.59 285.70
  Z"
/>
<path fill="#592f9b" fill-opacity="0.992" d="
  M 338.98 285.65
  L 336.53 289.23
  A 0.43 0.42 44.0 0 1 335.83 289.24
  L 333.76 286.37
  A 0.55 0.55 0.0 0 0 332.77 286.66
  L 332.55 290.54
  Q 332.54 290.76 332.32 290.76
  Q 332.11 290.75 331.85 290.74
  A 0.37 0.37 0.0 0 1 331.48 290.37
  L 331.49 282.19
  Q 331.49 281.21 332.06 282.01
  L 335.49 286.83
  A 0.85 0.85 0.0 0 0 336.88 286.84
  L 340.21 282.18
  Q 340.62 281.61 340.71 282.31
  Q 341.21 286.42 340.89 290.55
  A 0.57 0.57 0.0 0 1 339.75 290.51
  L 339.75 285.89
  A 0.42 0.42 0.0 0 0 338.98 285.65
  Z"
/>
<path fill="#592f9b" fill-opacity="0.992" d="
  M 229.62 290.02
  A 0.45 0.45 0.0 0 1 230.40 290.47
  L 229.54 292.42
  A 0.29 0.29 0.0 0 1 228.99 292.32
  Q 228.89 291.05 229.62 290.02
  Z"
/>
<path fill="#fd6362" d="
  M 127.38 334.60
  Q 127.93 334.72 128.21 335.25
  C 129.85 338.92 133.29 341.84 135.21 344.28
  Q 138.30 348.19 142.02 351.50
  Q 141.69 353.22 142.79 354.17
  Q 143.04 354.38 142.74 354.52
  C 142.24 354.75 141.86 354.74 141.44 354.33
  Q 134.28 347.42 128.54 339.98
  Q 129.02 337.96 126.99 336.80
  Q 126.59 336.57 126.70 337.02
  L 126.94 338.01
  L 124.57 334.94
  Q 123.46 331.51 121.75 329.26
  Q 117.75 324.03 115.28 319.02
  A 0.19 0.19 0.0 0 1 115.61 318.82
  C 119.46 324.26 122.68 329.59 127.38 334.60
  Z"
/>
<path fill="#d51514" d="
  M 128.21 335.25
  Q 127.93 334.72 127.38 334.60
  Q 127.58 334.57 127.72 334.52
  Q 128.14 334.37 127.87 334.02
  C 126.99 332.90 118.06 320.61 118.97 320.25
  A 0.16 0.15 62.2 0 1 119.15 320.31
  Q 127.77 333.49 138.29 345.33
  A 0.10 0.10 0.0 0 1 138.15 345.48
  C 136.45 344.07 129.01 335.33 128.21 335.25
  Z"
/>
<path fill="#592f9b" fill-opacity="0.992" d="
  M 378.39 322.95
  Q 378.60 323.32 378.99 323.27
  L 371.78 333.03
  Q 370.97 333.21 371.02 333.07
  L 378.39 322.95
  Z"
/>
<path fill="#d51514" d="
  M 371.02 333.07
  Q 370.97 333.21 371.78 333.03
  C 366.25 340.24 362.00 344.20 356.92 349.63
  A 0.23 0.22 3.1 0 0 357.22 349.96
  Q 361.41 346.89 364.81 343.01
  A 0.38 0.38 0.0 0 1 365.38 343.00
  Q 365.52 343.15 365.64 343.26
  Q 365.77 343.37 365.65 343.49
  L 358.82 350.35
  Q 357.00 350.29 356.70 351.42
  L 349.49 356.74
  C 351.17 354.81 352.59 352.66 354.39 350.94
  Q 363.24 342.47 371.02 333.07
  Z"
/>
<path fill="#592f9b" fill-opacity="0.992" d="
  M 358.82 350.35
  Q 357.83 350.96 357.30 351.84
  Q 357.21 351.44 356.70 351.42
  Q 357.00 350.29 358.82 350.35
  Z"
/>
<path fill="#d51514" d="
  M 171.04 369.78
  L 170.24 370.21
  Q 167.95 368.96 165.91 367.39
  Q 164.63 366.40 166.06 367.15
  L 171.04 369.78
  Z"
/>
<path fill="#592f9b" fill-opacity="0.992" d="
  M 179.75 373.29
  Q 179.04 374.00 177.74 373.09
  L 178.38 372.57
  Q 178.76 372.26 179.10 372.61
  L 179.75 373.29
  Z"
/>
<ellipse fill="#592f9b" fill-opacity="0.992" cx="0.00" cy="0.00" transform="translate(213.29,379.66) rotate(13.6)" rx="4.25" ry="0.31"/>
<path fill="#592f9b" fill-opacity="0.992" d="
  M 197.22 387.11
  C 197.61 386.94 198.09 387.26 198.15 387.56
  A 0.43 0.43 0.0 0 1 197.60 388.06
  L 193.78 386.92
  A 0.47 0.47 0.0 0 1 193.98 386.00
  Q 195.44 386.19 196.62 387.05
  Q 196.90 387.25 197.22 387.11
  Z"
/>
<ellipse fill="#592f9b" fill-opacity="0.992" cx="0.00" cy="0.00" transform="translate(245.59,396.49) rotate(-1.0)" rx="3.87" ry="0.37"/>
</svg>
